<?xml version="1.0" encoding="utf-8"?>
<!-- Generator: Adobe Illustrator 27.5.0, SVG Export Plug-In . SVG Version: 6.00 Build 0)  -->
<svg version="1.1" xmlns="http://www.w3.org/2000/svg" xmlns:xlink="http://www.w3.org/1999/xlink" x="0px" y="0px"
	 viewBox="50 0 400 400" style="enable-background:new 50 0 400 400;" xml:space="preserve">
<g id="OBJECTS">
	<g>
		<g>
			<g>
				<linearGradient id="SVGID_1_" gradientUnits="userSpaceOnUse" x1="264.9047" y1="125.5971" x2="246.2825" y2="243.3168">
					<stop  offset="0" style="stop-color:#3356A8"/>
					<stop  offset="0.2928" style="stop-color:#3778BC"/>
					<stop  offset="0.9366" style="stop-color:#42CDEE"/>
					<stop  offset="1" style="stop-color:#43D6F3"/>
				</linearGradient>
				<path style="fill:url(#SVGID_1_);" d="M368.199,222.99c-7.71,7.38-16.29,8.88-21.96,8.88c-4.82,0-8.18-1.07-8.81-1.28
					l-4.93-1.69l0.2-5.21c0.03-0.81,0.46-8.14,5.5-15.51c4.11-6.02,12.06-13.05,26.95-14.57c1.31-4.19,2.06-8.64,2.14-13.25
					c0.02-0.32,0.02-0.63,0.02-0.95c0-0.52-0.01-1.04-0.03-1.55c0-0.21-0.01-0.42-0.02-0.63c-0.02-0.44-0.04-0.88-0.08-1.31
					c-0.04-0.57-0.09-1.13-0.15-1.7c-0.01-0.07-0.02-0.14-0.02-0.22c-0.06-0.5-0.13-1.01-0.2-1.51c-0.05-0.38-0.11-0.75-0.18-1.12
					c-0.09-0.53-0.18-1.05-0.29-1.57c-0.14-0.69-0.3-1.37-0.47-2.05c-0.04-0.16-0.08-0.32-0.12-0.48c-0.09-0.32-0.17-0.63-0.26-0.94
					c-0.11-0.4-0.23-0.8-0.36-1.2c-0.24-0.79-0.51-1.57-0.8-2.35c-0.08,0.15-0.15,0.3-0.23,0.45c-9.71,17.78-26.78,22.9-27.5,23.11
					l-5.01,1.45l-2.82-4.39c-0.42-0.64-10.13-16.02-5.77-36.09c1.11-5.12,3.02-10.05,5.7-14.77c-2.96-0.58-6.02-0.89-9.15-0.89
					c-2.92,0-5.78,0.28-8.56,0.78c-2.05-3.9-4.72-7.42-7.86-10.43c-2.05-1.99-4.31-3.74-6.74-5.25c0.63,2.4,0.98,4.83,1.05,7.27
					c0.33,12.56-6.93,20.54-7.76,21.41l-3.6,3.77l-4.64-2.37c-1.09-0.55-10.76-5.78-14.67-17.87c-1.75-5.4-2.04-11.2-0.89-17.35
					c-13.03,2.94-23.7,12.12-28.7,24.24c-5.09-3.84-11.42-6.12-18.28-6.12c-8.5,0-16.19,3.5-21.7,9.14
					c5.74,4.31,10.12,9.42,13.06,15.29c7.26,14.44,2.84,28.02,2.65,28.59l-1.66,4.95l-5.21-0.18c-0.61-0.02-15.16-0.63-26.33-12.59
					c-4.84-5.18-8.27-11.58-10.29-19.14c-4.44,0.93-8.67,2.43-12.61,4.42c-12.1,6.13-21.44,16.92-25.64,30.02
					c-1.26,3.93-2.06,8.07-2.33,12.35c-0.07,1.07-0.11,2.14-0.11,3.22v0.1c0,14.37,5.93,27.36,15.47,36.64
					c5.25,5.13,11.6,9.12,18.65,11.62c5.33,1.89,11.08,2.92,17.06,2.92c4.73,0,9.3-0.65,13.64-1.85c0.24,0.43,0.49,0.86,0.74,1.29
					c0.17,0.29,0.35,0.57,0.53,0.85c0.12,0.2,0.25,0.39,0.38,0.59c0.19,0.29,0.39,0.59,0.59,0.88c0.62,0.89,1.28,1.76,1.97,2.6
					c0.2,0.25,0.4,0.49,0.61,0.73c0.49,0.57,0.99,1.12,1.51,1.66c0.3,0.31,0.6,0.62,0.91,0.92c0.33,0.32,0.66,0.63,1,0.94
					c0.31,0.28,0.62,0.56,0.93,0.83c0.58,0.49,1.17,0.97,1.78,1.44c0.01,0,0.01,0.01,0.01,0.01c1.18,0.9,2.42,1.75,3.7,2.52
					c0.28,0.17,0.57,0.34,0.86,0.51c0.18,0.1,0.37,0.21,0.56,0.31c0.2,0.11,0.4,0.22,0.61,0.33c0.3,0.16,0.61,0.32,0.92,0.47
					c0.12,0.06,0.24,0.12,0.36,0.17c0.31,0.16,0.62,0.31,0.94,0.44c0.59,0.28,1.18,0.53,1.79,0.77c0.27,0.11,0.55,0.21,0.83,0.32
					c0.2,0.07,0.4,0.15,0.61,0.22c0.22,0.08,0.45,0.15,0.67,0.22c0.24,0.09,0.48,0.17,0.72,0.24c0.31,0.1,0.63,0.19,0.94,0.28
					c0.1,0.03,0.19,0.06,0.29,0.08c0.38,0.11,0.75,0.21,1.13,0.3c1.12,0.28,2.25,0.5,3.4,0.68c0.32,0.06,0.64,0.1,0.97,0.14
					c0.23,0.04,0.47,0.07,0.71,0.09c0.24,0.03,0.48,0.06,0.72,0.08c0.29,0.03,0.59,0.05,0.89,0.07c0.44,0.04,0.89,0.06,1.34,0.08
					c0.57,0.03,1.15,0.04,1.73,0.04c6.13,0,11.94-1.37,17.15-3.79c1.12,2.41,2.4,4.83,3.84,7.24c0.24,0.4,0.49,0.8,0.74,1.2
					c0.26,0.41,0.52,0.81,0.78,1.22c0.52,0.79,1.06,1.58,1.62,2.36c0.27,0.39,0.56,0.79,0.86,1.18c0.25,0.35,0.51,0.69,0.77,1.03
					c0.45,0.58,0.91,1.16,1.39,1.73c0.28,0.35,0.57,0.69,0.86,1.03c0.29,0.34,0.59,0.68,0.89,1.02c0.28,0.32,0.57,0.64,0.86,0.96
					h0.01c0.01,0.02,0.03,0.03,0.04,0.05c0.31,0.33,0.62,0.67,0.94,1c0.68,0.7,1.37,1.4,2.09,2.08c0.3,0.29,0.6,0.57,0.91,0.85
					c0.22,0.21,0.44,0.41,0.67,0.61c0.2,0.19,0.41,0.37,0.62,0.55c0.94,0.84,1.92,1.65,2.94,2.44c0.3,0.24,0.61,0.47,0.92,0.71
					c0.57,0.44,1.14,0.86,1.73,1.27c0.32,0.23,0.64,0.45,0.96,0.67c1.31,0.91,2.67,1.78,4.09,2.62c0.01,0,0.01,0,0.01,0
					c6.46,3.83,14.07,6.99,23,9.16c3.42,0.83,6.83-0.14,9.25-2.28c1.64-1.47,2.82-3.48,3.22-5.84c0,0-0.07-0.02-0.19-0.06
					c-0.04-0.02-0.09-0.03-0.15-0.05c-0.03-0.01-0.07-0.03-0.12-0.04c-0.05-0.02-0.12-0.05-0.19-0.07c-0.4-0.14-0.98-0.36-1.71-0.65
					c-0.24-0.1-0.5-0.21-0.78-0.33c-1.99-0.84-4.76-2.16-7.79-4.03c-0.68-0.42-1.37-0.87-2.07-1.34c-1.96-1.33-3.98-2.89-5.93-4.69
					c-1.1-1.02-2.17-2.11-3.19-3.28c-0.22-0.25-0.44-0.5-0.65-0.76c-0.59-0.71-1.16-1.44-1.71-2.2c-0.26-0.35-0.5-0.71-0.74-1.07
					c-0.12-0.18-0.24-0.35-0.34-0.52c-0.2-0.29-0.38-0.59-0.56-0.89c-0.45-0.74-0.87-1.49-1.27-2.27c-0.13-0.26-0.27-0.54-0.4-0.81
					c-0.33-0.69-0.64-1.4-0.93-2.12c-0.14-0.35-0.27-0.69-0.39-1.05c-0.39-1.06-0.72-2.15-1-3.27c-0.1-0.37-0.18-0.75-0.27-1.13
					c-0.17-0.78-0.31-1.57-0.42-2.37c-0.05-0.35-0.1-0.7-0.14-1.06c-0.05-0.46-0.1-0.93-0.13-1.4c-0.04-0.42-0.06-0.84-0.08-1.27
					c4.93,7.76,13.6,12.92,23.48,12.92c13.26,0,24.34-9.29,27.12-21.71c4.04,2.28,8.69,3.59,13.66,3.59c1.31,0,2.6-0.09,3.86-0.27
					c0.38-0.05,0.75-0.11,1.13-0.18c0.05-0.01,0.1-0.02,0.15-0.03c0.4-0.07,0.8-0.15,1.2-0.25c0.32-0.07,0.64-0.15,0.95-0.24
					c0.28-0.07,0.56-0.15,0.84-0.24c0.26-0.08,0.52-0.16,0.78-0.25c0.23-0.08,0.46-0.16,0.69-0.25c0.32-0.11,0.64-0.23,0.95-0.37
					c0.24-0.09,0.48-0.19,0.71-0.3c0.22-0.09,0.44-0.19,0.65-0.3c0.53-0.24,1.05-0.51,1.56-0.79c0.25-0.14,0.51-0.29,0.75-0.44
					c0.07-0.04,0.14-0.08,0.2-0.12c0.27-0.16,0.54-0.33,0.8-0.5c0.1-0.07,0.19-0.13,0.28-0.19c0.26-0.18,0.52-0.35,0.77-0.54
					c0.25-0.18,0.5-0.36,0.74-0.55c0.29-0.22,0.57-0.45,0.84-0.69c1.07-0.88,2.06-1.85,2.98-2.89c0.26-0.3,0.52-0.61,0.77-0.92
					c0.52-0.63,1-1.28,1.45-1.95c1.13-1.68,2.09-3.5,2.84-5.42c0.29-0.73,0.54-1.48,0.77-2.24c0.02-0.05,0.04-0.11,0.05-0.18
					c0.1-0.35,0.19-0.71,0.28-1.06c0.02-0.03,0.02-0.06,0.03-0.1c0.09-0.39,0.17-0.77,0.25-1.16c0.01-0.02,0.01-0.04,0.01-0.06
					c0.08-0.41,0.15-0.82,0.21-1.23c0.05-0.28,0.08-0.56,0.12-0.85c0.04-0.34,0.07-0.7,0.1-1.05c0.06-0.72,0.09-1.45,0.09-2.19
					C371.269,231.1,370.159,226.79,368.199,222.99z M198.749,220.73c-0.51,0.18-3.26,1.06-7.12,1.06c-5,0-9.81-1.49-13.89-4.29
					c-5.37-3.69-9.47-9.57-12.17-17.46l-3.03-8.81l9.31-0.45c0.84-0.04,1.69-0.06,2.5-0.06h0.01c14.1,0,21.29,6.09,24.84,11.2
					c3.9,5.61,4.24,11.28,4.26,11.91l0.22,5.21L198.749,220.73z M256.79,179.809c-3.65,9.01-11.33,12.46-12.2,12.82l-4.8,2.02
					l-3.32-4.03c-0.6-0.74-5.87-7.47-4.91-17.25c0.75-7.67,5.04-14.76,12.73-21.07l7.21-5.9l3.67,8.56
					C259.15,164.259,259.69,172.619,256.79,179.809z M311.739,192.151c-2,4.7-5.34,7.17-5.99,7.61l-3.68,2.53l-3.48-2.8
					c-0.33-0.27-2.03-1.7-3.6-4.2c-2.03-3.23-3.02-6.93-2.86-10.71c0.2-4.93,2.3-9.89,6.23-14.75l5.02-6.21l4.57,6.55
					c0.36,0.51,0.7,1.04,1.03,1.55C314.629,180.721,313.599,187.801,311.739,192.151z"/>
				
					<linearGradient id="SVGID_00000062872034946061147540000001757706383696969139_" gradientUnits="userSpaceOnUse" x1="269.1165" y1="251.3027" x2="257.145" y2="144.8896">
					<stop  offset="0" style="stop-color:#FFEB6A"/>
					<stop  offset="1" style="stop-color:#D8449A"/>
				</linearGradient>
				<path style="fill:url(#SVGID_00000062872034946061147540000001757706383696969139_);" d="M292.129,184.581
					c0.2-4.93,2.3-9.89,6.23-14.75l5.02-6.21l4.57,6.55c0.36,0.51,0.7,1.04,1.03,1.55c5.65,9,4.62,16.08,2.76,20.43
					c-2,4.7-5.34,7.17-5.99,7.61l-3.68,2.53l-3.48-2.8c-0.33-0.27-2.03-1.7-3.6-4.2
					C292.959,192.061,291.969,188.361,292.129,184.581z M368.199,222.99c-7.71,7.38-16.29,8.88-21.96,8.88
					c-4.82,0-8.18-1.07-8.81-1.28l-4.93-1.69l0.2-5.21c0.03-0.81,0.46-8.14,5.5-15.51c4.11-6.02,12.06-13.05,26.95-14.57
					c1.31-4.19,2.06-8.64,2.14-13.25c0.02-0.32,0.02-0.63,0.02-0.95c0-0.52-0.01-1.04-0.03-1.55c0-0.21-0.01-0.42-0.02-0.63
					c-0.02-0.44-0.04-0.88-0.08-1.31c-0.04-0.57-0.09-1.13-0.15-1.7c-0.01-0.07-0.02-0.14-0.02-0.22c-0.06-0.5-0.13-1.01-0.2-1.51
					c-0.05-0.38-0.11-0.75-0.18-1.12c-0.09-0.53-0.18-1.05-0.29-1.57c-0.14-0.69-0.3-1.37-0.47-2.05c-0.04-0.16-0.08-0.32-0.12-0.48
					c-0.09-0.32-0.17-0.63-0.26-0.94c-0.11-0.4-0.23-0.8-0.36-1.2c-0.24-0.79-0.51-1.57-0.8-2.35c-0.08,0.15-0.15,0.3-0.23,0.45
					c-9.71,17.78-26.78,22.9-27.5,23.11l-5.01,1.45l-2.82-4.39c-0.42-0.64-10.13-16.02-5.77-36.09c1.11-5.12,3.02-10.05,5.7-14.77
					c-2.96-0.58-6.02-0.89-9.15-0.89c-2.92,0-5.78,0.28-8.56,0.78c-2.05-3.9-4.72-7.42-7.86-10.43
					c-18.38,67-57.26,100.39-92.53,117.18c-17.89,8.53-34.85,12.79-47.75,14.98c5.33,1.89,11.08,2.92,17.06,2.92
					c4.73,0,9.3-0.65,13.64-1.85c0.24,0.43,0.49,0.86,0.74,1.29c0.17,0.29,0.35,0.57,0.53,0.85c0.12,0.2,0.25,0.39,0.38,0.59
					c0.19,0.29,0.39,0.59,0.59,0.88c0.62,0.89,1.28,1.76,1.97,2.6c0.2,0.25,0.4,0.49,0.61,0.73c0.49,0.57,0.99,1.12,1.51,1.66
					c0.3,0.31,0.6,0.62,0.91,0.92c0.33,0.32,0.66,0.63,1,0.94c0.31,0.28,0.62,0.56,0.93,0.83c0.58,0.49,1.17,0.97,1.78,1.44
					c0.01,0,0.01,0.01,0.01,0.01c1.18,0.9,2.42,1.75,3.7,2.52c0.28,0.17,0.57,0.34,0.86,0.51c0.18,0.1,0.37,0.21,0.56,0.31
					c0.2,0.11,0.4,0.22,0.61,0.33c0.3,0.16,0.61,0.32,0.92,0.47c0.12,0.06,0.24,0.12,0.36,0.17c0.31,0.16,0.62,0.31,0.94,0.44
					c0.59,0.28,1.18,0.53,1.79,0.77c0.27,0.11,0.55,0.21,0.83,0.32c0.2,0.07,0.4,0.15,0.61,0.22c0.22,0.08,0.44,0.15,0.67,0.22
					c0.24,0.09,0.48,0.17,0.72,0.24c0.31,0.1,0.63,0.19,0.94,0.28c0.1,0.03,0.19,0.06,0.29,0.08c0.38,0.11,0.75,0.21,1.13,0.3
					c1.12,0.28,2.25,0.5,3.4,0.68c0.32,0.06,0.64,0.1,0.97,0.14c0.23,0.04,0.47,0.07,0.71,0.09c0.24,0.03,0.48,0.06,0.72,0.08
					c0.29,0.03,0.59,0.05,0.89,0.07c0.44,0.04,0.89,0.06,1.34,0.08c0.57,0.03,1.15,0.04,1.73,0.04c6.13,0,11.94-1.37,17.15-3.79
					c1.12,2.41,2.4,4.83,3.84,7.24c0.24,0.4,0.49,0.8,0.74,1.2c0.26,0.41,0.52,0.81,0.78,1.22c0.52,0.79,1.06,1.58,1.62,2.36
					c0.27,0.39,0.56,0.79,0.86,1.18c0.25,0.35,0.51,0.69,0.77,1.03c0.45,0.58,0.91,1.16,1.39,1.73c0.28,0.35,0.57,0.69,0.86,1.03
					c0.29,0.34,0.59,0.68,0.89,1.02c0.28,0.32,0.57,0.64,0.86,0.96c0.02,0.02,0.03,0.03,0.05,0.05c0.31,0.33,0.62,0.67,0.94,1
					c0.68,0.7,1.37,1.4,2.09,2.08c0.3,0.29,0.6,0.57,0.91,0.85c0.22,0.21,0.44,0.41,0.67,0.61c0.2,0.19,0.41,0.37,0.62,0.55
					c0.94,0.84,1.92,1.65,2.94,2.44c0.3,0.24,0.61,0.47,0.92,0.71c0.57,0.44,1.14,0.86,1.73,1.27c0.32,0.23,0.64,0.45,0.96,0.67
					c1.31,0.91,2.67,1.78,4.09,2.62c0.01,0,0.01,0,0.01,0c11.12,2.46,22.01,4.77,32.25,6.88c1.64-1.47,2.82-3.48,3.22-5.84
					c0,0-0.07-0.02-0.19-0.06c-0.04-0.02-0.09-0.03-0.15-0.05c-0.03-0.01-0.07-0.03-0.12-0.04c-0.05-0.02-0.12-0.05-0.19-0.07
					c-0.4-0.14-0.98-0.36-1.71-0.65c-0.24-0.1-0.5-0.21-0.78-0.33c-1.99-0.84-4.76-2.16-7.79-4.03c-0.68-0.41-1.37-0.86-2.07-1.34
					c-1.96-1.33-3.98-2.89-5.93-4.69c-1.1-1.02-2.17-2.11-3.19-3.28c-0.23-0.25-0.44-0.5-0.65-0.76c-0.59-0.71-1.16-1.44-1.71-2.2
					c-0.26-0.35-0.51-0.71-0.74-1.07c-0.12-0.18-0.24-0.35-0.34-0.52c-0.2-0.29-0.39-0.59-0.56-0.89c-0.45-0.74-0.87-1.49-1.27-2.27
					c-0.14-0.26-0.27-0.53-0.4-0.81c-0.33-0.69-0.64-1.4-0.93-2.12c-0.13-0.34-0.27-0.7-0.39-1.05c-0.39-1.06-0.72-2.15-1-3.27
					c-0.1-0.37-0.18-0.75-0.27-1.13c-0.17-0.78-0.31-1.57-0.42-2.37c-0.05-0.35-0.1-0.7-0.14-1.06c-0.05-0.46-0.1-0.93-0.13-1.4
					c-0.04-0.42-0.06-0.84-0.08-1.27c4.93,7.76,13.6,12.92,23.48,12.92c13.26,0,24.34-9.29,27.12-21.71
					c4.04,2.28,8.69,3.59,13.66,3.59c1.31,0,2.6-0.09,3.86-0.27c0.38-0.05,0.75-0.11,1.13-0.18c0.05-0.01,0.1-0.02,0.15-0.03
					c0.4-0.07,0.8-0.15,1.2-0.25c0.32-0.07,0.64-0.15,0.95-0.24c0.28-0.07,0.56-0.15,0.84-0.24c0.26-0.08,0.52-0.16,0.78-0.25
					c0.23-0.08,0.46-0.16,0.69-0.25c0.32-0.11,0.64-0.23,0.95-0.37c0.24-0.09,0.48-0.19,0.71-0.3c0.22-0.09,0.44-0.19,0.65-0.3
					c0.53-0.24,1.05-0.51,1.56-0.79c0.25-0.14,0.51-0.29,0.75-0.44c0.07-0.04,0.14-0.08,0.2-0.12c0.27-0.16,0.54-0.33,0.8-0.5
					c0.1-0.07,0.19-0.13,0.28-0.19c0.26-0.18,0.52-0.35,0.77-0.54c0.25-0.18,0.5-0.36,0.74-0.55c0.29-0.22,0.57-0.45,0.84-0.69
					c1.07-0.88,2.06-1.85,2.98-2.89c0.26-0.3,0.52-0.61,0.77-0.92c0.52-0.63,1-1.28,1.45-1.95c1.14-1.68,2.1-3.5,2.84-5.42
					c0.29-0.73,0.55-1.47,0.77-2.24c0.02-0.05,0.04-0.11,0.05-0.18c0.1-0.35,0.19-0.71,0.28-1.06c0.02-0.03,0.02-0.06,0.03-0.1
					c0.09-0.39,0.17-0.77,0.25-1.16c0.01-0.02,0.01-0.04,0.01-0.06c0.08-0.41,0.15-0.82,0.21-1.23c0.05-0.28,0.08-0.56,0.12-0.85
					c0.04-0.34,0.07-0.7,0.1-1.05c0.06-0.72,0.09-1.45,0.09-2.19C371.269,231.1,370.159,226.79,368.199,222.99z"/>
				
					<linearGradient id="SVGID_00000006679552064427718390000017645491078148299148_" gradientUnits="userSpaceOnUse" x1="284.4549" y1="219.0339" x2="288.4454" y2="256.9436">
					<stop  offset="0" style="stop-color:#9AF5FF"/>
					<stop  offset="1" style="stop-color:#FFFFFF;stop-opacity:0"/>
				</linearGradient>
				<path style="fill:url(#SVGID_00000006679552064427718390000017645491078148299148_);" d="M371.269,235.67
					c0,0.74-0.03,1.47-0.09,2.19c-0.03,0.35-0.06,0.71-0.1,1.05c-0.04,0.29-0.07,0.57-0.12,0.85c-0.06,0.41-0.13,0.82-0.21,1.23
					c0,0.02,0,0.04-0.01,0.06c-0.08,0.39-0.16,0.77-0.25,1.16c-0.01,0.04-0.01,0.07-0.03,0.1c-0.09,0.35-0.18,0.71-0.28,1.06
					c-0.01,0.07-0.03,0.13-0.05,0.18c-0.22,0.77-0.48,1.51-0.77,2.24c-0.74,1.92-1.7,3.74-2.84,5.42c-0.45,0.67-0.93,1.32-1.45,1.95
					c-0.25,0.31-0.51,0.62-0.77,0.92c-0.92,1.04-1.91,2.01-2.98,2.89c-0.27,0.24-0.55,0.47-0.84,0.69
					c-0.24,0.19-0.49,0.37-0.74,0.55c-0.25,0.19-0.51,0.36-0.77,0.54c-0.09,0.06-0.18,0.12-0.28,0.19c-0.26,0.17-0.53,0.34-0.8,0.5
					c-0.06,0.04-0.13,0.08-0.2,0.12c-0.24,0.15-0.5,0.3-0.75,0.44c-0.51,0.28-1.03,0.55-1.56,0.79c-0.21,0.11-0.43,0.21-0.65,0.3
					c-0.23,0.11-0.47,0.21-0.71,0.3c-0.31,0.14-0.63,0.26-0.95,0.37c-0.23,0.09-0.46,0.17-0.69,0.25c-0.26,0.09-0.52,0.17-0.78,0.25
					c-0.28,0.09-0.56,0.17-0.84,0.24c-0.31,0.09-0.63,0.17-0.95,0.24c-0.4,0.1-0.8,0.18-1.2,0.25c-0.05,0.01-0.1,0.02-0.15,0.03
					c-0.38,0.07-0.75,0.13-1.13,0.18c-1.26,0.18-2.55,0.27-3.86,0.27c-4.97,0-9.62-1.31-13.66-3.59
					c-2.78,12.42-13.86,21.71-27.12,21.71c-9.88,0-18.55-5.16-23.48-12.92c0.02,0.43,0.04,0.85,0.08,1.27
					c0.03,0.47,0.08,0.94,0.13,1.4c0.04,0.36,0.09,0.71,0.14,1.06c0.11,0.8,0.25,1.59,0.42,2.37c0.09,0.38,0.17,0.76,0.27,1.13
					c0.28,1.12,0.61,2.21,1,3.27c0.12,0.35,0.26,0.71,0.39,1.05c0.29,0.72,0.6,1.43,0.93,2.12c0.13,0.28,0.26,0.55,0.4,0.81
					c0.4,0.78,0.82,1.53,1.27,2.27c0.17,0.3,0.36,0.6,0.56,0.89c0.1,0.17,0.22,0.34,0.34,0.52c0.23,0.36,0.48,0.72,0.74,1.07
					c0.55,0.76,1.12,1.49,1.71,2.2c0.21,0.26,0.42,0.51,0.65,0.76c1.02,1.17,2.09,2.26,3.19,3.28c-11.27-0.41-22.25-1.24-32.46-2.63
					h-0.01c-0.29-0.32-0.58-0.64-0.86-0.96c-0.3-0.34-0.6-0.68-0.89-1.02c-0.29-0.34-0.58-0.68-0.86-1.03
					c-0.48-0.57-0.94-1.15-1.39-1.73c-0.26-0.34-0.52-0.68-0.77-1.03c-0.3-0.39-0.59-0.79-0.86-1.18c-0.56-0.78-1.1-1.57-1.62-2.36
					c-0.26-0.41-0.52-0.81-0.78-1.22c-0.25-0.4-0.5-0.8-0.74-1.2c-1.44-2.41-2.72-4.83-3.84-7.24c-5.21,2.42-11.02,3.79-17.15,3.79
					c-0.58,0-1.16-0.01-1.73-0.04c-0.45-0.02-0.9-0.04-1.34-0.08c-0.3-0.02-0.6-0.04-0.89-0.07c-0.24-0.02-0.48-0.05-0.72-0.08
					c-0.24-0.02-0.48-0.05-0.71-0.09c-0.33-0.04-0.65-0.08-0.97-0.14c-1.15-0.18-2.28-0.4-3.4-0.68c-0.38-0.09-0.75-0.19-1.13-0.3
					c-0.1-0.02-0.19-0.05-0.29-0.08c-0.31-0.09-0.63-0.18-0.94-0.28c-0.24-0.07-0.48-0.15-0.72-0.24c-0.23-0.07-0.45-0.14-0.67-0.22
					c-0.21-0.07-0.41-0.15-0.61-0.22c-0.28-0.11-0.56-0.21-0.83-0.32c-0.61-0.24-1.2-0.49-1.79-0.77c-0.32-0.13-0.63-0.28-0.94-0.44
					c-0.12-0.05-0.24-0.11-0.36-0.17c-0.31-0.15-0.62-0.31-0.92-0.47c-0.21-0.11-0.41-0.22-0.61-0.33c-0.19-0.1-0.38-0.21-0.56-0.31
					c-0.29-0.17-0.58-0.34-0.86-0.51c-1.28-0.77-2.52-1.62-3.7-2.52c0,0,0-0.01-0.01-0.01c-2.89-4.8-4-10.39-2.92-16.92
					c0,0,13.76-0.76,34.7-5.75c33.99-8.11,86.88-27.41,130.53-72.8c0.07,0.5,0.14,1.01,0.2,1.51c0,0.08,0.01,0.15,0.02,0.22
					c0.06,0.57,0.11,1.13,0.15,1.7c0.04,0.43,0.06,0.87,0.08,1.31c0.01,0.21,0.02,0.42,0.02,0.63c0.02,0.51,0.03,1.03,0.03,1.55
					c0,0.32,0,0.63-0.02,0.95c-0.08,4.61-0.83,9.06-2.14,13.25c-14.89,1.52-22.84,8.55-26.95,14.57c-5.04,7.37-5.47,14.7-5.5,15.51
					l-0.2,5.21l4.93,1.69c0.63,0.21,3.99,1.28,8.81,1.28c5.67,0,14.25-1.5,21.96-8.88C370.159,226.79,371.269,231.1,371.269,235.67z
					"/>
			</g>
			
				<linearGradient id="SVGID_00000042005428216145279600000010024042500460568481_" gradientUnits="userSpaceOnUse" x1="185.6109" y1="171.6582" x2="195.5286" y2="142.3661">
				<stop  offset="0" style="stop-color:#67EBAB"/>
				<stop  offset="0.4313" style="stop-color:#50D2CD"/>
				<stop  offset="1" style="stop-color:#2FAEFF"/>
			</linearGradient>
			<path style="fill:url(#SVGID_00000042005428216145279600000010024042500460568481_);" d="M201.253,174.317l-11.162-4.294
				c-0.258-0.099-0.386-0.389-0.287-0.646c0.099-0.258,0.389-0.385,0.646-0.287l9.794,3.768l-5.626-8.134l-6.611-2.166
				c-0.262-0.086-0.405-0.368-0.319-0.631c0.086-0.262,0.365-0.407,0.631-0.319l5.359,1.755l-6.554-9.477
				c-0.157-0.227-0.101-0.539,0.127-0.695c0.225-0.158,0.538-0.102,0.695,0.127l6.583,9.519l0.332-5.025
				c0.019-0.275,0.255-0.479,0.532-0.466c0.275,0.019,0.484,0.256,0.466,0.532l-0.415,6.281l5.633,8.145V159.95
				c0-0.276,0.224-0.5,0.5-0.5s0.5,0.224,0.5,0.5v13.801l4.344,6.281c1.119-4.043,7.27-31.98-32.098-44.869
				c-1.385,40.276,26.211,44.816,31.185,45.307L201.253,174.317z"/>
			
				<linearGradient id="SVGID_00000024703539542542579080000013870691507087908781_" gradientUnits="userSpaceOnUse" x1="337.4256" y1="174.0281" x2="358.7056" y2="111.1779">
				<stop  offset="0" style="stop-color:#67EBAB"/>
				<stop  offset="0.4313" style="stop-color:#50D2CD"/>
				<stop  offset="1" style="stop-color:#2FAEFF"/>
			</linearGradient>
			<path style="fill:url(#SVGID_00000024703539542542579080000013870691507087908781_);" d="M359.669,111.443
				c-45.023,28.926-28.229,62.559-25.394,67.538l3.22-9.517l-2.204-16.882c-0.036-0.274,0.157-0.525,0.431-0.561
				c0.271-0.037,0.525,0.157,0.561,0.431l1.94,14.861l6.81-20.13l-1.277-11.831c-0.03-0.274,0.169-0.521,0.443-0.551
				c0.283-0.026,0.521,0.169,0.551,0.443l1.045,9.685l5.102-15.082c0.088-0.262,0.372-0.401,0.634-0.313
				c0.262,0.088,0.402,0.372,0.314,0.634l-5.122,15.14l7.08-7.28c0.193-0.198,0.509-0.203,0.707-0.01
				c0.198,0.192,0.202,0.509,0.01,0.707l-8.54,8.782l-6.893,20.377l11.953-10.643c0.205-0.184,0.521-0.166,0.706,0.041
				c0.184,0.206,0.165,0.523-0.041,0.706L338.436,169.8l-3.262,9.642C339.923,177.817,375.243,163.818,359.669,111.443z"/>
			
				<linearGradient id="SVGID_00000168832109345815050710000008921752992647483288_" gradientUnits="userSpaceOnUse" x1="351.8741" y1="225.2459" x2="361.6628" y2="196.3349">
				<stop  offset="0" style="stop-color:#67EBAB"/>
				<stop  offset="0.4313" style="stop-color:#50D2CD"/>
				<stop  offset="1" style="stop-color:#2FAEFF"/>
			</linearGradient>
			<path style="fill:url(#SVGID_00000168832109345815050710000008921752992647483288_);" d="M339.821,222.765l4.591-2.971
				l4.833-10.042c0.121-0.249,0.42-0.353,0.668-0.234c0.249,0.12,0.354,0.419,0.234,0.668l-4.124,8.566l7.446-4.819l2.72-7.633
				c0.093-0.26,0.377-0.397,0.639-0.303c0.26,0.093,0.396,0.379,0.303,0.639l-2.282,6.404l8.486-5.492
				c0.231-0.15,0.541-0.084,0.691,0.148c0.15,0.231,0.083,0.541-0.148,0.691l-8.618,5.577l5.513,0.844
				c0.273,0.042,0.461,0.297,0.418,0.57c-0.038,0.247-0.251,0.424-0.494,0.424c-0.025,0-0.05-0.002-0.076-0.006l-6.626-1.014
				l-7.743,5.011l7.685,0.846c0.274,0.03,0.473,0.277,0.442,0.552c-0.028,0.256-0.245,0.445-0.497,0.445
				c-0.018,0-0.037-0.001-0.055-0.003l-8.905-0.98l-5.153,3.335c1.442,0.456,23.654,6.932,33.855-23.632
				C345.026,199.21,340.515,217.82,339.821,222.765z"/>
			
				<linearGradient id="SVGID_00000049213321152245418010000000415897915109659822_" gradientUnits="userSpaceOnUse" x1="276.7181" y1="134.6771" x2="287.3474" y2="103.2839">
				<stop  offset="0" style="stop-color:#67EBAB"/>
				<stop  offset="0.4313" style="stop-color:#50D2CD"/>
				<stop  offset="1" style="stop-color:#2FAEFF"/>
			</linearGradient>
			<path style="fill:url(#SVGID_00000049213321152245418010000000415897915109659822_);" d="M282.638,133.385l-6.846-6.876
				c-0.195-0.196-0.194-0.513,0.001-0.708c0.196-0.195,0.513-0.194,0.708,0.002l5.799,5.824l-1.443-7.497l-5.104-6.513
				c-0.17-0.217-0.132-0.532,0.085-0.702c0.218-0.17,0.532-0.132,0.702,0.085l3.904,4.981l-2.288-11.889
				c-0.052-0.271,0.125-0.533,0.397-0.585c0.267-0.053,0.533,0.125,0.585,0.397l2.269,11.793l1.663-6.154
				c0.072-0.268,0.347-0.425,0.613-0.353c0.267,0.072,0.424,0.347,0.353,0.613l-2.198,8.132l1.47,7.637l3.837-7.874
				c0.121-0.248,0.418-0.353,0.668-0.23c0.248,0.121,0.351,0.42,0.23,0.668l-4.421,9.072l1.344,6.987
				c2.303-2.745,14.606-19.459-7.547-40.304c-13.462,26.307,2.962,38.138,6.531,40.319L282.638,133.385z"/>
			
				<linearGradient id="SVGID_00000166669914018150107090000004403804874788191164_" gradientUnits="userSpaceOnUse" x1="302.3804" y1="191.7712" x2="303.441" y2="166.6718">
				<stop  offset="0" style="stop-color:#67EBAB"/>
				<stop  offset="0.4313" style="stop-color:#50D2CD"/>
				<stop  offset="1" style="stop-color:#2FAEFF"/>
			</linearGradient>
			<path style="fill:url(#SVGID_00000166669914018150107090000004403804874788191164_);" d="M303.894,174.912
				c-0.27-0.429-0.56-0.867-0.868-1.31c-7.002,8.663-5.086,15.107-2.954,18.503c0.603,0.96,1.216,1.668,1.658,2.122l0.137-4.292
				l-1.965-4.054c-0.121-0.248-0.017-0.548,0.231-0.668c0.25-0.12,0.548-0.017,0.668,0.231l1.134,2.339l0.187-5.865
				c0.008-0.276,0.218-0.501,0.516-0.483c0.276,0.008,0.492,0.239,0.483,0.516l-0.188,5.905l1.413-2.444
				c0.137-0.24,0.443-0.322,0.683-0.182c0.239,0.138,0.321,0.444,0.182,0.683l-2.346,4.056l-0.145,4.562
				C304.421,193.133,311.186,186.525,303.894,174.912z"/>
			
				<linearGradient id="SVGID_00000171707235044279167970000011872209238910871696_" gradientUnits="userSpaceOnUse" x1="250.2408" y1="228.5795" x2="256.8916" y2="306.3941">
				<stop  offset="0" style="stop-color:#5632BD"/>
				<stop  offset="1" style="stop-color:#D76AE3"/>
			</linearGradient>
			<path style="fill:url(#SVGID_00000171707235044279167970000011872209238910871696_);" d="M370.959,239.76
				c-0.05,0.36-0.11,0.71-0.18,1.07c-0.01,0.05-0.02,0.11-0.03,0.16c0,0.02,0,0.04-0.01,0.06c-0.08,0.39-0.16,0.77-0.25,1.16
				c-0.01,0.04-0.01,0.07-0.03,0.1c-0.09,0.35-0.18,0.71-0.28,1.06c-0.01,0.07-0.03,0.13-0.05,0.18c-0.23,0.76-0.48,1.51-0.77,2.24
				c-0.75,1.92-1.71,3.74-2.84,5.42c-0.45,0.67-0.93,1.32-1.45,1.95c-0.25,0.31-0.51,0.62-0.77,0.92c-0.92,1.04-1.91,2.01-2.98,2.89
				c-0.27,0.24-0.55,0.47-0.84,0.69c-0.24,0.19-0.49,0.37-0.74,0.55c-0.25,0.19-0.51,0.36-0.77,0.54c-0.09,0.06-0.18,0.12-0.28,0.19
				c-0.26,0.17-0.53,0.34-0.8,0.5c-0.06,0.04-0.13,0.08-0.2,0.12c-0.24,0.15-0.5,0.3-0.75,0.44c-0.51,0.28-1.03,0.55-1.56,0.79
				c-0.21,0.11-0.43,0.21-0.65,0.3c-0.23,0.11-0.47,0.21-0.71,0.3c-0.31,0.14-0.63,0.26-0.95,0.37c-0.23,0.09-0.46,0.17-0.69,0.25
				c-0.26,0.09-0.52,0.17-0.78,0.25c-0.28,0.09-0.56,0.17-0.84,0.24c-0.31,0.09-0.63,0.17-0.95,0.24c-0.4,0.1-0.8,0.18-1.2,0.25
				c-0.05,0.01-0.1,0.02-0.15,0.03c-0.38,0.07-0.75,0.13-1.13,0.18c-1.26,0.18-2.55,0.27-3.86,0.27c-4.97,0-9.62-1.31-13.66-3.59
				c-2.78,12.42-13.86,21.71-27.12,21.71c-9.88,0-18.55-5.16-23.48-12.92c0.02,0.43,0.04,0.85,0.08,1.27
				c0.03,0.47,0.08,0.94,0.13,1.4c0.04,0.36,0.09,0.71,0.14,1.06c0.11,0.8,0.25,1.59,0.42,2.37c0.09,0.38,0.17,0.76,0.27,1.13
				c0.28,1.12,0.61,2.21,1,3.27c0.12,0.36,0.25,0.7,0.39,1.05c0.29,0.72,0.6,1.43,0.93,2.12c0.13,0.27,0.27,0.55,0.4,0.81
				c0.4,0.78,0.82,1.53,1.27,2.27c0.18,0.3,0.36,0.6,0.56,0.89c0.1,0.17,0.22,0.34,0.34,0.52c0.24,0.36,0.48,0.72,0.74,1.07
				c0.55,0.76,1.12,1.49,1.71,2.2c0.21,0.26,0.43,0.51,0.65,0.76c1.02,1.17,2.09,2.26,3.19,3.28c1.95,1.8,3.97,3.36,5.93,4.69
				c0.7,0.47,1.39,0.92,2.07,1.34c3.03,1.87,5.8,3.19,7.79,4.03c0.28,0.12,0.54,0.23,0.78,0.33c0.73,0.29,1.31,0.51,1.71,0.65
				c0.07,0.02,0.14,0.05,0.19,0.07c0.05,0.01,0.09,0.03,0.12,0.04c0.06,0.02,0.11,0.03,0.15,0.05c0.12,0.04,0.19,0.06,0.19,0.06
				c-0.4,2.36-1.58,4.37-3.22,5.84c-2.42,2.14-5.83,3.11-9.25,2.28c-8.93-2.17-16.54-5.33-23-9.16c0,0,0,0-0.01,0
				c-1.42-0.84-2.78-1.71-4.09-2.62c-0.32-0.22-0.64-0.44-0.96-0.67c-0.59-0.41-1.16-0.83-1.73-1.27c-0.31-0.24-0.62-0.47-0.92-0.71
				c-1.02-0.79-2-1.6-2.94-2.44c-0.21-0.18-0.42-0.36-0.62-0.55c-0.23-0.2-0.45-0.4-0.67-0.61c-0.31-0.28-0.61-0.56-0.91-0.85
				c-0.72-0.68-1.41-1.38-2.09-2.08c-0.32-0.33-0.63-0.67-0.94-1c-0.01-0.02-0.03-0.03-0.04-0.05h-0.01
				c-0.29-0.32-0.58-0.64-0.86-0.96c-0.3-0.34-0.6-0.68-0.89-1.02c-0.29-0.34-0.58-0.68-0.86-1.03c-0.48-0.57-0.94-1.15-1.39-1.73
				c-0.26-0.34-0.52-0.68-0.77-1.03c-0.3-0.39-0.59-0.79-0.86-1.18c-0.56-0.78-1.1-1.57-1.62-2.36c-0.26-0.41-0.52-0.81-0.78-1.22
				c-0.25-0.4-0.5-0.8-0.74-1.2c-1.44-2.41-2.72-4.83-3.84-7.24c-5.21,2.42-11.02,3.79-17.15,3.79c-0.58,0-1.16-0.01-1.73-0.04
				c-0.45-0.02-0.9-0.04-1.34-0.08c-0.3-0.02-0.6-0.04-0.89-0.07c-0.24-0.02-0.48-0.05-0.72-0.08c-0.24-0.02-0.48-0.05-0.71-0.09
				c-0.33-0.04-0.65-0.08-0.97-0.14c-1.15-0.18-2.28-0.4-3.4-0.68c-0.38-0.09-0.75-0.19-1.13-0.3c-0.1-0.02-0.19-0.05-0.29-0.08
				c-0.31-0.09-0.63-0.18-0.94-0.28c-0.24-0.07-0.48-0.15-0.72-0.24c-0.22-0.07-0.45-0.14-0.67-0.22c-0.21-0.07-0.41-0.15-0.61-0.22
				c-0.28-0.11-0.56-0.21-0.83-0.32c-0.61-0.24-1.2-0.49-1.79-0.77c-0.32-0.13-0.63-0.28-0.94-0.44c-0.12-0.05-0.24-0.11-0.36-0.17
				c-0.31-0.15-0.62-0.31-0.92-0.47c-0.21-0.11-0.41-0.22-0.61-0.33c-0.19-0.1-0.38-0.21-0.56-0.31c-0.29-0.17-0.58-0.34-0.86-0.51
				c-1.1-0.66-2.16-1.38-3.18-2.13c-0.18-0.13-0.35-0.26-0.52-0.39c0,0,0-0.01-0.01-0.01c-0.61-0.47-1.2-0.95-1.78-1.44
				c-0.31-0.27-0.62-0.55-0.93-0.83c-0.34-0.31-0.67-0.62-1-0.94c-0.31-0.3-0.61-0.61-0.91-0.92c-0.52-0.54-1.02-1.09-1.51-1.66
				c-0.21-0.24-0.41-0.48-0.61-0.73c-0.69-0.84-1.35-1.71-1.97-2.6c-0.2-0.29-0.4-0.59-0.59-0.88c-0.13-0.2-0.26-0.39-0.38-0.59
				c-0.18-0.28-0.36-0.56-0.53-0.85c-0.25-0.43-0.5-0.86-0.74-1.29c-3.7,1.02-7.56,1.64-11.54,1.8c-0.7,0.04-1.4,0.05-2.1,0.05
				c-5.98,0-11.73-1.03-17.06-2.92c-19.88-7.03-34.12-25.98-34.12-48.26v-0.1c0-1.08,0.04-2.15,0.11-3.22
				c0.27-4.28,1.07-8.42,2.33-12.35c5.75,8.34,15.33,17.5,28.54,26.09c13.35,8.69,30.41,16.8,50.89,22.86
				c8.04,2.38,16.6,4.45,25.68,6.11c12.91,2.36,26.86,3.91,41.8,4.39c26.6,0.85,56.34-1.68,88.97-9.02
				C368.349,240.37,369.649,240.07,370.959,239.76z"/>
			
				<linearGradient id="SVGID_00000032637881985218712100000017492647530031090314_" gradientUnits="userSpaceOnUse" x1="166.7164" y1="214.8758" x2="134.3994" y2="242.8109">
				<stop  offset="0" style="stop-color:#5632BD"/>
				<stop  offset="1" style="stop-color:#D76AE3"/>
			</linearGradient>
			<path style="fill:url(#SVGID_00000032637881985218712100000017492647530031090314_);" d="M159.709,216.32
				c5.26,13.4,12.47,27.26,22.3,40.71c-0.7,0.04-1.4,0.05-2.1,0.05c-5.98,0-11.73-1.03-17.06-2.92
				c-19.88-7.03-34.12-25.98-34.12-48.26v-0.1c0-1.08,0.04-2.15,0.11-3.22c0.27-4.28,1.07-8.42,2.33-12.35
				C136.919,198.57,146.499,207.73,159.709,216.32z"/>
			
				<linearGradient id="SVGID_00000130622973605607384530000003507062112865723063_" gradientUnits="userSpaceOnUse" x1="140.6174" y1="163.2127" x2="147.1904" y2="227.8467">
				<stop  offset="0" style="stop-color:#9AF5FF"/>
				<stop  offset="1" style="stop-color:#FFFFFF;stop-opacity:0"/>
			</linearGradient>
			<path style="fill:url(#SVGID_00000130622973605607384530000003507062112865723063_);" d="M144.199,242.54
				c-9.54-9.28-15.47-22.27-15.47-36.64v-0.1c0-1.08,0.04-2.15,0.11-3.22c0.27-4.28,1.07-8.42,2.33-12.35
				c4.2-13.1,13.54-23.89,25.64-30.02C138.289,188.55,139.789,220.76,144.199,242.54z"/>
			
				<linearGradient id="SVGID_00000013156752195704992480000006164366597539973306_" gradientUnits="userSpaceOnUse" x1="241.6059" y1="183.2391" x2="250.0837" y2="158.2002">
				<stop  offset="0" style="stop-color:#67EBAB"/>
				<stop  offset="0.4313" style="stop-color:#50D2CD"/>
				<stop  offset="1" style="stop-color:#2FAEFF"/>
			</linearGradient>
			<path style="fill:url(#SVGID_00000013156752195704992480000006164366597539973306_);" d="M248.732,157.718
				c-16.039,13.147-9.001,25.372-7.22,27.95l1.347-5.498l-1.653-7.776c-0.057-0.27,0.115-0.536,0.385-0.593
				c0.272-0.056,0.536,0.116,0.593,0.385l1.222,5.75l2.815-11.49c0.066-0.268,0.336-0.434,0.605-0.367
				c0.268,0.066,0.432,0.336,0.367,0.605l-2.811,11.476l3.382-4.121c0.175-0.212,0.49-0.245,0.704-0.069
				c0.213,0.175,0.244,0.491,0.069,0.704l-4.706,5.733l-1.34,5.469C245.334,184.369,256.924,176.849,248.732,157.718z"/>
			
				<linearGradient id="SVGID_00000049917728276850122160000016913822556014258579_" gradientUnits="userSpaceOnUse" x1="195.8147" y1="214.2729" x2="178.6906" y2="201.7592">
				<stop  offset="0" style="stop-color:#67EBAB"/>
				<stop  offset="0.4313" style="stop-color:#50D2CD"/>
				<stop  offset="1" style="stop-color:#2FAEFF"/>
			</linearGradient>
			<path style="fill:url(#SVGID_00000049917728276850122160000016913822556014258579_);" d="M190.117,210.229h-5.789
				c-0.276,0-0.5-0.224-0.5-0.5s0.224-0.5,0.5-0.5h4.318l-9.168-6.235c-0.228-0.155-0.288-0.466-0.132-0.695
				c0.155-0.227,0.467-0.288,0.695-0.132l9.023,6.136l-1.983-4.305c-0.116-0.251-0.006-0.547,0.245-0.663
				c0.25-0.115,0.547-0.005,0.663,0.245l2.678,5.814l5.711,3.884c-0.48-3.332-3.503-15.56-22.024-15.558
				c-0.699,0-1.423,0.018-2.166,0.054c4.983,14.529,13.913,17.016,19.443,17.016c2.078,0,3.662-0.349,4.391-0.544L190.117,210.229z"
				/>
		</g>
	</g>
</g>
</svg>
